<svg xmlns="http://www.w3.org/2000/svg" width="706.667" height="706.667" preserveAspectRatio="xMidYMid meet" version="1.0" viewBox="0 0 530 530"><metadata>Created by potrace 1.14, written by Peter Selinger 2001-2017</metadata><g fill="#000" stroke="none"><path d="M2375 5289 c-608 -72 -1128 -314 -1555 -724 -196 -188 -285 -301 -467 -590 -30 -46 -115 -221 -149 -302 -98 -235 -167 -504 -191 -743 -12 -117 -8 -515 5 -615 86 -614 353 -1144 789 -1568 400 -389 905 -638 1468 -723 131 -20 524 -26 664 -11 155 17 332 54 491 103 856 265 1523 946 1769 1805 76 267 101 463 96 774 -1 127 -5 241 -8 255 -3 14 -11 61 -17 105 -74 515 -335 1045 -703 1424 -233 240 -455 404 -742 546 -386 191 -735 272 -1175 272 -113 0 -236 -4 -275 -8z m473 -1880 c290 -77 510 -309 573 -599 19 -90 17 -259 -5 -345 -40 -159 -144 -323 -269 -425 -74 -61 -216 -132 -312 -156 -94 -23 -266 -23 -365 0 -226 53 -424 211 -525 421 -60 125 -78 205 -78 345 -1 136 17 218 73 336 163 341 547 520 908 423z" transform="translate(0.000000,530.000000) scale(0.100000,-0.100000)"/></g></svg>